<mxfile host="app.diagrams.net" modified="2022-03-20T05:36:57.608Z" agent="5.0 (Macintosh; Intel Mac OS X 10_14_6) AppleWebKit/537.36 (KHTML, like Gecko) Chrome/99.0.4844.74 Safari/537.36" etag="6nB5BbMCVVKxAbOG1Irc" version="17.1.3" type="github">
  <diagram id="GAfN7kdgt1OOZRtxo3mX" name="Page-1">
    <mxGraphModel dx="2066" dy="1104" grid="1" gridSize="10" guides="1" tooltips="1" connect="1" arrows="1" fold="1" page="1" pageScale="1" pageWidth="827" pageHeight="1169" math="0" shadow="0">
      <root>
        <mxCell id="0" />
        <mxCell id="1" parent="0" />
        <mxCell id="t6m5xiCAaRr9nvl1XE3a-1" value="" style="rounded=0;whiteSpace=wrap;html=1;" parent="1" vertex="1">
          <mxGeometry x="90" y="90" width="520" height="790" as="geometry" />
        </mxCell>
        <mxCell id="t6m5xiCAaRr9nvl1XE3a-13" value="Yes" style="edgeStyle=orthogonalEdgeStyle;rounded=0;orthogonalLoop=1;jettySize=auto;html=1;entryX=0;entryY=0.5;entryDx=0;entryDy=0;" parent="1" source="t6m5xiCAaRr9nvl1XE3a-2" target="t6m5xiCAaRr9nvl1XE3a-6" edge="1">
          <mxGeometry relative="1" as="geometry">
            <Array as="points">
              <mxPoint x="440" y="170" />
              <mxPoint x="440" y="170" />
            </Array>
          </mxGeometry>
        </mxCell>
        <mxCell id="t6m5xiCAaRr9nvl1XE3a-14" value="No" style="edgeStyle=orthogonalEdgeStyle;rounded=0;orthogonalLoop=1;jettySize=auto;html=1;entryX=0.5;entryY=0;entryDx=0;entryDy=0;" parent="1" source="t6m5xiCAaRr9nvl1XE3a-2" target="t6m5xiCAaRr9nvl1XE3a-8" edge="1">
          <mxGeometry relative="1" as="geometry" />
        </mxCell>
        <mxCell id="t6m5xiCAaRr9nvl1XE3a-2" value="&lt;font face=&quot;Verdana&quot; style=&quot;font-size: 11px&quot;&gt;Are there instances&lt;br&gt;in multiple &lt;br&gt;Availability Zones?&lt;/font&gt;" style="rhombus;whiteSpace=wrap;html=1;" parent="1" vertex="1">
          <mxGeometry x="250" y="110" width="170" height="120" as="geometry" />
        </mxCell>
        <mxCell id="t6m5xiCAaRr9nvl1XE3a-5" style="edgeStyle=orthogonalEdgeStyle;rounded=0;orthogonalLoop=1;jettySize=auto;html=1;entryX=0;entryY=0.5;entryDx=0;entryDy=0;" parent="1" source="t6m5xiCAaRr9nvl1XE3a-3" target="t6m5xiCAaRr9nvl1XE3a-2" edge="1">
          <mxGeometry relative="1" as="geometry" />
        </mxCell>
        <mxCell id="t6m5xiCAaRr9nvl1XE3a-3" value="&lt;font face=&quot;Verdana&quot; style=&quot;font-size: 11px&quot;&gt;Scale In&lt;/font&gt;" style="rounded=1;whiteSpace=wrap;html=1;" parent="1" vertex="1">
          <mxGeometry x="100" y="140" width="100" height="60" as="geometry" />
        </mxCell>
        <mxCell id="t6m5xiCAaRr9nvl1XE3a-25" style="edgeStyle=orthogonalEdgeStyle;rounded=0;orthogonalLoop=1;jettySize=auto;html=1;entryX=1;entryY=0.5;entryDx=0;entryDy=0;" parent="1" source="t6m5xiCAaRr9nvl1XE3a-6" target="t6m5xiCAaRr9nvl1XE3a-8" edge="1">
          <mxGeometry relative="1" as="geometry">
            <Array as="points">
              <mxPoint x="530" y="300" />
            </Array>
          </mxGeometry>
        </mxCell>
        <mxCell id="t6m5xiCAaRr9nvl1XE3a-6" value="&lt;font face=&quot;Verdana&quot; style=&quot;font-size: 11px&quot;&gt;Select the Avaiilability Zone with the most instances&lt;/font&gt;" style="rounded=0;whiteSpace=wrap;html=1;" parent="1" vertex="1">
          <mxGeometry x="470" y="140" width="120" height="60" as="geometry" />
        </mxCell>
        <mxCell id="t6m5xiCAaRr9nvl1XE3a-19" style="edgeStyle=orthogonalEdgeStyle;rounded=0;orthogonalLoop=1;jettySize=auto;html=1;" parent="1" source="t6m5xiCAaRr9nvl1XE3a-7" target="t6m5xiCAaRr9nvl1XE3a-12" edge="1">
          <mxGeometry relative="1" as="geometry" />
        </mxCell>
        <mxCell id="t6m5xiCAaRr9nvl1XE3a-22" value="No" style="edgeLabel;html=1;align=center;verticalAlign=middle;resizable=0;points=[];" parent="t6m5xiCAaRr9nvl1XE3a-19" vertex="1" connectable="0">
          <mxGeometry x="-0.8571" relative="1" as="geometry">
            <mxPoint as="offset" />
          </mxGeometry>
        </mxCell>
        <mxCell id="t6m5xiCAaRr9nvl1XE3a-29" style="edgeStyle=orthogonalEdgeStyle;rounded=0;orthogonalLoop=1;jettySize=auto;html=1;entryX=0.5;entryY=0;entryDx=0;entryDy=0;" parent="1" source="t6m5xiCAaRr9nvl1XE3a-7" target="t6m5xiCAaRr9nvl1XE3a-9" edge="1">
          <mxGeometry relative="1" as="geometry" />
        </mxCell>
        <mxCell id="_x7NYkT0ZKx0kjK8XD4H-1" value="Yes" style="edgeLabel;html=1;align=center;verticalAlign=middle;resizable=0;points=[];" vertex="1" connectable="0" parent="t6m5xiCAaRr9nvl1XE3a-29">
          <mxGeometry x="-0.1461" y="3" relative="1" as="geometry">
            <mxPoint as="offset" />
          </mxGeometry>
        </mxCell>
        <mxCell id="t6m5xiCAaRr9nvl1XE3a-7" value="&lt;font face=&quot;Verdana&quot; style=&quot;font-size: 11px&quot;&gt;Are there&lt;br&gt;multiple instances&lt;br&gt;using oldest launch template or configurations&lt;/font&gt;" style="rhombus;whiteSpace=wrap;html=1;" parent="1" vertex="1">
          <mxGeometry x="225" y="360" width="220" height="120" as="geometry" />
        </mxCell>
        <mxCell id="t6m5xiCAaRr9nvl1XE3a-15" style="edgeStyle=orthogonalEdgeStyle;rounded=0;orthogonalLoop=1;jettySize=auto;html=1;entryX=0.5;entryY=0;entryDx=0;entryDy=0;" parent="1" source="t6m5xiCAaRr9nvl1XE3a-8" target="t6m5xiCAaRr9nvl1XE3a-7" edge="1">
          <mxGeometry relative="1" as="geometry" />
        </mxCell>
        <mxCell id="t6m5xiCAaRr9nvl1XE3a-8" value="&lt;font face=&quot;Verdana&quot; style=&quot;font-size: 11px&quot;&gt;Select the instance with oldest launch template or configuration&lt;/font&gt;" style="rounded=0;whiteSpace=wrap;html=1;" parent="1" vertex="1">
          <mxGeometry x="240" y="270" width="190" height="60" as="geometry" />
        </mxCell>
        <mxCell id="t6m5xiCAaRr9nvl1XE3a-28" style="edgeStyle=orthogonalEdgeStyle;rounded=0;orthogonalLoop=1;jettySize=auto;html=1;entryX=0.5;entryY=0;entryDx=0;entryDy=0;" parent="1" source="t6m5xiCAaRr9nvl1XE3a-9" target="t6m5xiCAaRr9nvl1XE3a-10" edge="1">
          <mxGeometry relative="1" as="geometry" />
        </mxCell>
        <mxCell id="t6m5xiCAaRr9nvl1XE3a-9" value="&lt;font face=&quot;Verdana&quot; style=&quot;font-size: 11px&quot;&gt;Select the instance closest&lt;br&gt;to the next billing hour&lt;/font&gt;" style="rounded=0;whiteSpace=wrap;html=1;" parent="1" vertex="1">
          <mxGeometry x="240" y="524.5" width="190" height="65.5" as="geometry" />
        </mxCell>
        <mxCell id="t6m5xiCAaRr9nvl1XE3a-18" value="Yes" style="edgeStyle=orthogonalEdgeStyle;rounded=0;orthogonalLoop=1;jettySize=auto;html=1;entryX=0.5;entryY=0;entryDx=0;entryDy=0;" parent="1" source="t6m5xiCAaRr9nvl1XE3a-10" target="t6m5xiCAaRr9nvl1XE3a-11" edge="1">
          <mxGeometry relative="1" as="geometry" />
        </mxCell>
        <mxCell id="t6m5xiCAaRr9nvl1XE3a-21" value="No" style="edgeStyle=orthogonalEdgeStyle;rounded=0;orthogonalLoop=1;jettySize=auto;html=1;" parent="1" source="t6m5xiCAaRr9nvl1XE3a-10" edge="1">
          <mxGeometry relative="1" as="geometry">
            <mxPoint x="540" y="680" as="targetPoint" />
          </mxGeometry>
        </mxCell>
        <mxCell id="t6m5xiCAaRr9nvl1XE3a-10" value="&lt;font face=&quot;Verdana&quot; style=&quot;font-size: 11px&quot;&gt;Are there instance &lt;br&gt;in multiple &lt;br&gt;Availability Zones?&lt;/font&gt;" style="rhombus;whiteSpace=wrap;html=1;" parent="1" vertex="1">
          <mxGeometry x="250" y="620" width="170" height="120" as="geometry" />
        </mxCell>
        <mxCell id="t6m5xiCAaRr9nvl1XE3a-24" style="edgeStyle=orthogonalEdgeStyle;rounded=0;orthogonalLoop=1;jettySize=auto;html=1;entryX=0;entryY=0.5;entryDx=0;entryDy=0;" parent="1" source="t6m5xiCAaRr9nvl1XE3a-11" target="t6m5xiCAaRr9nvl1XE3a-12" edge="1">
          <mxGeometry relative="1" as="geometry" />
        </mxCell>
        <mxCell id="t6m5xiCAaRr9nvl1XE3a-11" value="&lt;font face=&quot;Verdana&quot; style=&quot;font-size: 11px&quot;&gt;Select an Instance at random&lt;/font&gt;" style="rounded=0;whiteSpace=wrap;html=1;" parent="1" vertex="1">
          <mxGeometry x="240" y="790" width="190" height="60" as="geometry" />
        </mxCell>
        <mxCell id="t6m5xiCAaRr9nvl1XE3a-12" value="&lt;font face=&quot;Verdana&quot; style=&quot;font-size: 11px&quot;&gt;Terminate Instance&lt;/font&gt;" style="rounded=1;whiteSpace=wrap;html=1;" parent="1" vertex="1">
          <mxGeometry x="490" y="790" width="100" height="60" as="geometry" />
        </mxCell>
      </root>
    </mxGraphModel>
  </diagram>
</mxfile>
